<svg height="512" viewBox="0 0 152 152" width="512" xmlns="http://www.w3.org/2000/svg" xmlns:xlink="http://www.w3.org/1999/xlink"><linearGradient id="linear-gradient" gradientUnits="userSpaceOnUse" x1="78.39" x2="82.15" y1="64.41" y2="68.16"><stop offset="0" stop-color="#0d47a1"/><stop offset="1" stop-color="#01579b" stop-opacity="0"/></linearGradient><linearGradient id="linear-gradient-2" x1="37.7" x2="139.87" xlink:href="#linear-gradient" y1="54.94" y2="157.11"/><g id="Layer_2" data-name="Layer 2"><g id="Color_Icon" data-name="Color Icon"><g id="_07.Linkedin" data-name="07.Linkedin"><rect id="Background" fill="#4875b4" height="152" rx="12" width="152"/><g id="Shadow"><path d="m80.44 69.87h-.23v-7.28l3.33 3.32a14.82 14.82 0 0 0 -3.1 3.96z" fill="url(#linear-gradient)"/><path d="m152 107.79v32.21a12 12 0 0 1 -12 12h-66.69l-36-36h16.59v-53.41h-4.9l-9.49-9.48a9.51 9.51 0 0 0 6.09 2.19 9.68 9.68 0 0 0 9.61-9.7 9.55 9.55 0 0 0 -2-5.79l22.84 22.78h-11.75v53.41h16.56v-26.45c0-7 1.32-13.7 10-13.7s8.62 8 8.62 14.15v26h16.52v-29.34c0-8-1-15-4.73-19.6z" fill="url(#linear-gradient-2)"/></g><g id="Icon" fill="#fff"><path d="m116 116v-29.34c0-14.36-3.09-25.41-19.87-25.41-8.07 0-13.48 4.42-15.69 8.62h-.23v-7.28h-15.91v53.41h16.56v-26.45c0-7 1.32-13.7 10-13.7s8.62 8 8.62 14.15v26z"/><path d="m37.32 62.59h16.58v53.41h-16.58z"/><path d="m45.6 36a9.65 9.65 0 1 0 9.61 9.6 9.6 9.6 0 0 0 -9.61-9.6z"/></g></g></g></g></svg>